{"glyphs":{":":{"x_min":0,"x_max":234,"ha":234,"o":""},"$":{"x_min":0,"x_max":426,"ha":426,"o":"m 256 -4 q 252 -5 252 -9 l 253 -75 q 253 -85 243 -85 l 190 -85 q 180 -85 180 -75 l 181 -9 q 181 -5 177 -4 q 113 7 76 54 q 38 101 38 171 l 38 197 q 38 207 48 207 l 122 207 q 132 207 132 197 l 132 176 q 132 130 155 102 q 178 75 214 75 q 250 75 274 102 q 297 128 297 171 q 297 200 284 222 q 272 244 252 262 q 231 279 185 313 q 134 351 105 378 q 76 405 56 443 q 36 481 36 532 q 36 604 74 650 q 111 695 175 705 q 179 706 179 710 l 178 781 q 178 791 188 791 l 240 791 q 250 791 250 781 l 249 708 q 249 704 253 703 q 315 690 350 642 q 386 594 386 523 l 386 498 q 386 488 376 488 l 302 488 q 292 488 292 498 l 292 525 q 292 570 269 598 q 246 625 209 625 q 174 625 152 600 q 130 576 130 532 q 130 492 152 464 q 174 437 237 391 q 297 346 328 318 q 358 290 374 256 q 391 223 391 177 q 391 105 354 57 q 318 9 256 -4 z"},"?":{"x_min":0,"x_max":394,"ha":394,"o":"m 135 218 l 135 268 q 135 313 153 342 q 171 371 206 404 q 238 434 254 460 q 271 485 271 524 q 271 569 251 596 q 231 622 198 622 q 162 622 141 594 q 120 567 120 522 l 120 496 q 120 486 110 486 l 34 490 q 24 490 24 500 l 24 522 q 24 606 72 658 q 121 709 200 709 q 276 709 322 660 q 368 610 368 527 q 368 483 356 451 q 344 419 328 399 q 311 379 285 354 q 257 328 244 309 q 231 290 231 263 l 231 218 q 231 208 221 208 l 145 208 q 135 208 135 218 z m 120 65 q 120 93 138 111 q 156 129 184 129 q 212 129 230 111 q 248 93 248 65 q 248 37 230 19 q 211 1 184 1 q 156 1 138 19 q 120 37 120 65 z"},"<":{"x_min":0,"x_max":440,"ha":440,"o":"m 399 60 l 36 234 q 29 238 29 246 l 29 315 q 29 323 36 327 l 399 501 l 404 503 q 407 503 409 500 q 411 498 411 494 l 411 421 q 411 414 404 410 l 126 283 q 120 280 126 277 l 404 150 q 411 147 411 139 l 411 67 q 411 62 408 60 q 404 57 399 60 z"},"'":{"x_min":0,"x_max":137,"ha":137,"o":"m 29 496 l 20 688 q 20 698 29 698 l 107 698 q 116 698 116 688 l 106 496 q 106 486 96 486 l 39 486 q 29 486 29 496 z"},"=":{"x_min":0,"x_max":440,"ha":440,"o":""},"a":{"x_min":0,"x_max":425,"ha":425,"o":"m 382 350 l 382 10 q 382 0 372 0 l 296 0 q 286 0 286 10 l 286 32 q 286 34 284 35 q 283 36 281 34 q 246 -8 178 -8 q 121 -8 78 24 q 34 57 34 140 q 34 227 86 268 q 139 308 224 308 l 282 308 q 286 308 286 312 l 286 341 q 286 383 266 408 q 246 434 214 434 q 189 434 172 417 q 155 400 152 373 q 152 363 142 363 l 61 363 q 51 363 51 373 q 56 437 102 477 q 148 517 216 517 q 289 517 336 471 q 382 425 382 350 z m 286 160 l 286 228 q 286 232 282 232 l 221 232 q 181 232 157 210 q 133 189 133 148 q 133 112 151 94 q 169 76 199 76 q 234 76 260 98 q 286 120 286 160 z"},"L":{"x_min":0,"x_max":407,"ha":407,"o":"m 62 10 l 62 690 q 62 700 72 700 l 148 700 q 158 700 158 690 l 158 87 q 158 83 162 83 l 386 83 q 396 83 396 73 l 396 10 q 396 0 386 0 l 72 0 q 62 0 62 10 z"},"3":{"x_min":0,"x_max":418,"ha":418,"o":"m 373 215 q 373 165 364 124 q 350 60 311 26 q 272 -8 204 -8 q 134 -8 90 30 q 45 68 37 134 q 32 171 32 205 q 32 215 42 215 l 118 215 q 128 215 128 205 q 130 164 133 147 q 139 113 158 94 q 176 76 204 76 q 260 76 275 141 q 281 179 281 225 q 281 279 272 319 q 264 347 246 362 q 229 378 204 378 q 191 378 177 369 q 174 366 170 366 q 166 366 163 370 l 125 409 q 120 416 124 423 l 254 612 q 255 613 254 615 q 253 617 251 617 l 49 617 q 39 617 39 627 l 39 690 q 39 700 49 700 l 361 700 q 371 700 371 690 l 371 624 q 371 616 367 611 l 250 439 q 247 436 252 434 q 292 428 320 396 q 349 365 362 316 q 373 267 373 215 z"},";":{"x_min":0,"x_max":207,"ha":207,"o":"m 38 404 q 38 432 58 452 q 78 473 104 473 q 129 473 149 452 q 169 432 169 404 q 169 375 150 355 q 132 335 104 335 q 75 335 56 355 q 38 375 38 404 z m 42 -73 l 62 143 q 63 153 73 153 l 139 153 q 144 153 146 150 q 149 147 148 142 l 109 -74 q 108 -83 98 -83 l 52 -83 q 47 -83 44 -80 q 41 -77 42 -73 z"},"J":{"x_min":0,"x_max":435,"ha":435,"o":"m 19 168 l 19 247 q 19 257 29 257 l 105 257 q 115 257 115 247 l 115 166 q 115 126 138 100 q 160 75 196 75 q 232 75 254 100 q 277 126 277 166 l 277 690 q 277 700 287 700 l 363 700 q 373 700 373 690 l 373 168 q 373 89 324 40 q 276 -8 196 -8 q 116 -8 68 40 q 19 89 19 168 z"},"V":{"x_min":0,"x_max":457,"ha":457,"o":"m 175 9 l 31 689 l 31 691 q 31 700 40 700 l 123 700 q 133 700 134 691 l 229 172 q 230 170 231 170 q 232 170 233 172 l 326 691 q 328 700 337 700 l 417 700 q 428 700 426 689 l 282 9 q 281 0 271 0 l 186 0 q 177 0 175 9 z"},"\"":{"x_min":0,"x_max":274,"ha":274,"o":"m 29 492 l 20 686 q 20 696 29 696 l 102 696 q 112 696 112 686 l 102 492 q 102 482 92 482 l 40 482 q 29 482 29 492 z m 171 492 l 162 686 q 162 696 171 696 l 244 696 q 253 696 253 686 l 243 492 q 243 482 233 482 l 181 482 q 171 482 171 492 z"},"7":{"x_min":0,"x_max":381,"ha":381,"o":"m 95 11 l 264 613 q 265 614 264 616 q 262 617 260 617 l 102 617 q 98 617 98 613 l 98 573 q 98 563 88 563 l 29 563 q 19 563 19 573 l 20 690 q 20 700 30 700 l 356 700 q 366 700 366 690 l 366 623 q 366 621 364 611 l 195 8 q 193 0 184 0 l 104 0 q 99 0 96 3 q 94 6 95 11 z"},"S":{"x_min":0,"x_max":426,"ha":426,"o":"m 38 171 l 38 197 q 38 207 48 207 l 122 207 q 132 207 132 197 l 132 176 q 132 130 155 102 q 178 75 214 75 q 250 75 274 102 q 297 128 297 171 q 297 200 284 222 q 272 244 252 262 q 231 279 185 313 q 134 351 105 378 q 76 405 56 443 q 36 481 36 532 q 36 613 84 660 q 132 708 209 708 q 289 708 338 657 q 386 606 386 523 l 386 498 q 386 488 376 488 l 302 488 q 292 488 292 498 l 292 525 q 292 570 269 598 q 246 625 209 625 q 174 625 152 600 q 130 576 130 532 q 130 492 152 464 q 174 437 237 391 q 297 346 328 318 q 358 290 374 256 q 391 223 391 177 q 391 93 342 42 q 293 -8 214 -8 q 135 -8 86 42 q 38 91 38 171 z"},"}":{"x_min":0,"x_max":298,"ha":298,"o":"m 37 -130 q 27 -130 27 -120 l 27 -57 q 27 -47 37 -47 l 60 -47 q 86 -47 100 -28 q 113 -10 113 24 l 113 211 q 113 257 126 286 q 138 314 164 327 q 169 330 164 332 q 138 346 126 374 q 113 402 113 448 l 113 630 q 113 664 100 682 q 86 700 60 700 l 37 700 q 27 700 27 710 l 27 774 q 27 784 37 784 l 100 784 q 209 784 209 666 l 209 458 q 209 417 222 395 q 235 373 263 369 q 272 368 272 358 l 272 301 q 272 292 263 290 q 235 286 222 264 q 209 242 209 200 l 209 -13 q 209 -130 100 -130 z"},"Z":{"x_min":0,"x_max":401,"ha":401,"o":"m 29 10 l 29 77 q 29 82 32 89 l 264 612 q 265 614 264 616 q 263 617 261 617 l 39 617 q 29 617 29 627 l 29 690 q 29 700 39 700 l 358 700 q 368 700 368 690 l 368 623 q 368 619 365 611 l 132 88 q 131 86 132 84 q 133 83 135 83 l 358 83 q 368 83 368 73 l 368 10 q 368 0 358 0 l 39 0 q 29 0 29 10 z"},"x":{"x_min":0,"x_max":398,"ha":398,"o":"m 20 12 l 141 251 q 143 254 141 257 l 20 497 q 19 499 19 502 q 19 509 27 509 l 111 509 q 120 509 123 502 l 196 346 q 197 344 199 344 q 201 344 202 346 l 276 502 q 279 509 288 509 l 371 509 q 376 509 378 506 q 380 502 378 497 l 258 257 q 257 254 258 251 l 378 12 q 379 10 379 7 q 379 0 371 0 l 288 0 q 279 0 276 7 l 202 165 q 201 167 199 167 q 197 167 196 165 l 122 7 q 119 0 111 0 l 27 0 q 22 0 20 4 q 18 7 20 12 z"},")":{"x_min":0,"x_max":254,"ha":254,"o":"m 159 755 q 202 679 228 569 q 255 459 255 334 q 255 206 228 94 q 201 -17 157 -93 q 153 -100 145 -100 l 71 -100 q 66 -100 64 -96 q 61 -93 63 -88 q 99 -7 123 102 q 147 211 147 333 q 147 454 123 562 q 99 670 63 750 l 62 754 q 62 762 71 762 l 147 762 q 155 762 159 755 z"},"&":{"x_min":0,"x_max":564,"ha":564,"o":"m 522 6 q 522 4 520 2 q 518 0 514 0 l 432 0 q 425 0 419 6 l 385 55 q 382 58 379 55 q 342 22 302 6 q 261 -9 213 -9 q 131 -9 84 34 q 36 78 36 160 q 36 228 67 276 q 98 323 152 366 q 155 367 153 371 q 118 421 102 450 q 85 478 80 498 q 74 519 74 545 q 74 619 118 664 q 162 708 233 708 q 305 708 351 663 q 397 618 397 544 q 397 483 366 438 q 334 394 278 350 q 275 349 277 345 l 325 277 l 383 198 q 385 194 389 198 q 392 204 400 216 q 424 256 436 278 q 438 282 442 283 q 446 284 450 282 l 506 250 q 514 245 510 236 q 480 180 441 125 q 440 122 441 119 l 520 12 q 522 10 522 6 z m 170 542 q 170 517 179 496 q 188 474 220 425 q 223 421 226 424 q 263 455 282 482 q 301 510 301 544 q 301 578 283 600 q 265 621 236 621 q 207 621 188 600 q 170 578 170 542 z m 328 125 q 331 128 329 131 l 210 292 q 208 295 205 292 q 170 261 151 232 q 132 202 132 166 q 132 125 156 100 q 179 74 223 74 q 275 74 328 125 z"},"_":{"x_min":0,"x_max":392,"ha":392,"o":"m 19 10 l 19 65 q 19 75 29 75 l 363 75 q 373 75 373 65 l 373 10 q 373 0 363 0 l 29 0 q 19 0 19 10 z"},"v":{"x_min":0,"x_max":399,"ha":399,"o":"m 145 9 l 22 498 l 21 502 q 21 509 30 509 l 115 509 q 125 509 126 500 l 198 157 q 199 154 200 154 q 201 154 202 157 l 273 500 q 275 509 284 509 l 369 508 q 374 508 376 505 q 379 502 377 497 l 255 9 q 254 0 244 0 l 156 0 q 147 0 145 9 z"},"O":{"x_min":0,"x_max":462,"ha":462,"o":"m 48 175 l 48 524 q 48 607 98 658 q 148 708 230 708 q 313 708 364 658 q 414 607 414 524 l 414 175 q 414 92 364 42 q 313 -8 230 -8 q 148 -8 98 42 q 48 92 48 175 z m 318 171 l 318 529 q 318 572 294 598 q 270 625 230 625 q 191 625 168 598 q 144 572 144 529 l 144 171 q 144 128 168 102 q 191 75 230 75 q 270 75 294 102 q 318 128 318 171 z"},"(":{"x_min":0,"x_max":254,"ha":254,"o":"m 95 -93 q 52 -17 26 92 q -1 202 -1 328 q -1 456 26 568 q 53 679 97 755 q 101 762 109 762 l 182 762 q 187 762 190 758 q 192 755 190 750 q 154 668 130 560 q 107 451 107 329 q 107 208 130 100 q 154 -7 190 -88 l 191 -92 q 191 -100 182 -100 l 107 -100 q 99 -100 95 -93 z"},"C":{"x_min":0,"x_max":452,"ha":452,"o":"m 48 173 l 48 528 q 48 610 98 659 q 147 708 228 708 q 310 708 360 659 q 409 610 409 528 l 409 512 q 409 502 399 502 l 323 498 q 313 498 313 508 l 313 534 q 313 575 290 600 q 266 625 228 625 q 190 625 167 600 q 144 575 144 534 l 144 166 q 144 125 167 100 q 190 75 228 75 q 266 75 290 100 q 313 125 313 166 l 313 192 q 313 202 323 202 l 399 198 q 409 198 409 188 l 409 173 q 409 91 360 42 q 310 -8 228 -8 q 147 -8 98 42 q 48 91 48 173 z"},"W":{"x_min":0,"x_max":646,"ha":646,"o":"m 159 9 l 26 689 l 26 691 q 26 700 35 700 l 114 700 q 124 700 125 691 l 206 222 q 207 220 208 220 q 209 220 210 222 l 282 691 q 283 700 292 700 l 359 700 q 368 700 369 691 l 446 222 q 447 220 448 220 q 449 220 450 222 l 524 691 q 526 700 534 700 l 612 700 q 617 700 620 697 q 622 694 621 689 l 495 9 q 494 0 484 0 l 413 0 q 405 0 403 9 l 327 482 q 326 484 324 484 q 323 484 323 482 l 251 9 q 250 0 241 0 l 170 0 q 161 0 159 9 z"},"A":{"x_min":0,"x_max":436,"ha":436,"o":"m 325 9 l 303 124 q 303 126 302 127 q 300 128 298 128 l 135 128 q 133 128 132 127 q 130 126 130 124 l 109 9 q 108 0 98 0 l 22 0 q 17 0 14 3 q 12 6 13 11 l 162 691 q 164 700 173 700 l 262 700 q 272 700 273 691 l 423 11 l 423 9 q 423 0 414 0 l 336 0 q 327 0 325 9 z m 150 204 l 283 204 q 286 204 286 208 l 218 563 q 217 565 216 565 q 215 565 214 563 l 147 208 q 147 204 150 204 z"},"f":{"x_min":0,"x_max":285,"ha":285,"o":"m 171 513 q 171 509 175 509 l 245 509 q 255 509 255 499 l 255 449 q 255 439 245 439 l 175 439 q 171 439 171 435 l 171 10 q 171 0 161 0 l 86 0 q 76 0 76 10 l 76 435 q 76 439 72 439 l 35 439 q 25 439 25 449 l 25 499 q 25 509 35 509 l 72 509 q 76 509 76 513 l 76 539 q 76 628 113 666 q 150 705 233 705 l 246 705 q 256 705 256 695 l 254 634 q 254 624 244 624 l 234 624 q 201 624 186 602 q 171 581 171 536 z"},"Q":{"x_min":0,"x_max":450,"ha":450,"o":"m 402 520 l 402 180 q 402 111 368 62 q 334 14 276 -1 q 273 -3 273 -6 l 273 -99 q 273 -109 263 -109 l 186 -109 q 176 -109 176 -99 l 176 -6 q 176 -3 173 -1 q 115 15 82 63 q 48 111 48 180 l 48 520 q 48 604 97 656 q 146 708 225 708 q 304 708 353 656 q 402 604 402 520 z m 306 530 q 306 572 284 598 q 261 625 225 625 q 189 625 166 598 q 144 572 144 530 l 144 170 q 144 128 166 102 q 189 75 225 75 q 261 75 284 102 q 306 128 306 170 z"},"w":{"x_min":0,"x_max":575,"ha":575,"o":"m 128 9 l 21 498 l 21 500 q 21 509 30 509 l 103 509 q 113 509 114 500 l 176 155 q 177 153 178 153 q 179 153 180 155 l 243 500 q 245 509 254 509 l 320 509 q 330 509 331 500 l 396 155 q 397 153 398 153 q 399 153 400 155 l 463 500 q 465 509 474 509 l 546 508 q 551 508 554 505 q 556 502 555 497 l 447 9 q 446 0 436 0 l 361 0 q 352 0 350 9 l 287 337 q 286 339 285 339 q 284 339 283 337 l 222 9 q 221 0 211 0 l 139 0 q 130 0 128 9 z"},"-":{"x_min":0,"x_max":320,"ha":320,"o":"m 29 274 l 29 337 q 29 347 39 347 l 281 347 q 291 347 291 337 l 291 274 q 291 264 281 264 l 39 264 q 29 264 29 274 z"},"E":{"x_min":0,"x_max":432,"ha":432,"o":"m 387 617 l 162 617 q 158 617 158 613 l 158 396 q 158 392 162 392 l 300 392 q 310 392 310 382 l 310 319 q 310 309 300 309 l 162 309 q 158 309 158 305 l 158 87 q 158 83 162 83 l 387 83 q 397 83 397 73 l 397 10 q 397 0 387 0 l 72 0 q 62 0 62 10 l 62 690 q 62 700 72 700 l 387 700 q 397 700 397 690 l 397 627 q 397 617 387 617 z"},"s":{"x_min":0,"x_max":387,"ha":387,"o":"m 35 129 l 35 138 q 35 148 45 148 l 116 148 q 126 148 126 138 l 126 131 q 126 104 147 86 q 168 67 199 67 q 229 67 248 85 q 266 103 266 131 q 266 153 253 168 q 240 183 222 192 q 205 200 169 215 q 130 232 104 248 q 79 264 59 294 q 39 324 39 370 q 39 438 82 476 q 124 514 196 514 q 270 514 312 475 q 355 436 355 369 l 355 366 q 355 356 345 356 l 276 356 q 266 356 266 366 l 266 373 q 266 400 247 419 q 228 438 198 438 q 167 438 149 419 q 131 400 131 373 q 131 352 143 338 q 155 324 172 316 q 189 307 226 291 q 267 273 294 256 q 321 240 342 210 q 362 180 362 135 q 362 70 318 32 q 273 -6 197 -6 q 122 -6 78 30 q 35 67 35 129 z"},">":{"x_min":0,"x_max":440,"ha":440,"o":"m 36 58 q 33 58 31 60 q 29 63 29 67 l 29 139 q 29 147 36 150 l 314 277 q 320 280 314 283 l 36 410 q 29 414 29 421 l 29 494 q 29 499 32 502 q 36 504 41 501 l 404 327 q 411 323 411 315 l 411 246 q 411 238 404 234 l 41 60 z"},"l":{"x_min":0,"x_max":191,"ha":191,"o":"m 48 10 l 48 690 q 48 700 58 700 l 134 700 q 144 700 144 690 l 144 10 q 144 0 134 0 l 58 0 q 48 0 48 10 z"},"8":{"x_min":0,"x_max":429,"ha":429,"o":"m 311 366 q 347 346 363 309 q 384 262 384 198 q 384 144 370 104 q 351 51 310 22 q 270 -8 214 -8 q 159 -8 118 21 q 78 50 59 103 q 44 145 44 198 q 44 259 62 302 q 79 345 118 365 q 122 368 118 371 q 82 393 65 428 q 44 469 44 526 q 44 585 65 625 q 85 666 124 688 q 163 711 214 711 q 264 711 302 690 q 341 668 362 627 q 384 586 384 526 q 384 469 364 429 q 347 394 311 372 q 306 369 311 366 z m 139 518 q 139 479 151 453 q 159 430 176 418 q 192 406 214 406 q 237 406 254 419 q 271 432 279 456 q 290 483 290 518 q 290 557 276 583 q 258 628 214 628 q 169 628 151 580 q 139 555 139 518 z m 289 203 q 289 246 278 277 q 271 303 254 317 q 237 331 214 331 q 190 331 173 316 q 156 302 148 274 q 139 246 139 204 q 139 167 146 140 q 154 109 172 92 q 189 75 214 75 q 240 75 258 93 q 276 111 283 143 q 289 169 289 203 z"},"\\":{"x_min":0,"x_max":363,"ha":363,"o":"m 342 8 q 342 0 332 0 l 257 0 q 249 0 246 8 l 51 689 l 50 692 q 50 700 60 700 l 135 700 q 143 700 146 692 l 341 11 z"},"e":{"x_min":0,"x_max":417,"ha":417,"o":"m 369 215 l 143 215 q 139 215 139 211 l 139 157 q 139 121 159 98 q 179 75 211 75 q 239 75 258 92 q 277 109 282 136 q 285 144 293 144 l 367 140 q 372 140 374 137 q 377 134 376 130 q 369 65 326 28 q 284 -8 211 -8 q 134 -8 88 35 q 43 78 43 150 l 43 358 q 43 429 88 473 q 134 517 211 517 q 289 517 334 473 q 379 429 379 358 l 379 225 q 379 215 369 215 z m 139 352 l 139 299 q 139 295 143 295 l 280 295 q 284 295 284 299 l 284 352 q 284 388 264 411 q 244 434 211 434 q 179 434 159 411 q 139 388 139 352 z"},"b":{"x_min":0,"x_max":431,"ha":431,"o":"m 387 358 l 387 150 q 387 79 348 36 q 310 -8 245 -8 q 221 -8 196 1 q 172 10 153 28 q 151 30 150 29 q 148 28 148 26 l 148 10 q 148 0 138 0 l 62 0 q 52 0 52 10 l 52 690 q 52 700 62 700 l 138 700 q 148 700 148 690 l 148 482 q 148 480 150 480 q 152 479 154 482 q 192 517 245 517 q 311 517 349 474 q 387 432 387 358 z m 219 434 q 188 434 168 411 q 148 388 148 352 l 148 157 q 148 121 168 98 q 188 75 219 75 q 251 75 272 98 q 292 121 292 157 l 292 352 q 292 388 272 411 q 251 434 219 434 z"},"%":{"x_min":0,"x_max":776,"ha":776,"o":"m 62 562 q 62 602 82 636 q 101 670 134 690 q 168 709 208 709 q 247 709 280 689 q 313 669 332 636 q 352 602 352 562 q 352 521 332 487 q 313 453 280 433 q 247 413 208 413 q 168 413 134 433 q 101 453 82 487 q 62 521 62 562 z m 169 12 l 536 693 q 539 700 548 700 l 597 700 q 603 700 606 696 q 608 693 605 688 l 238 7 q 235 0 226 0 l 177 0 q 171 0 168 4 q 166 7 169 12 z m 297 562 q 297 601 271 628 q 245 656 208 656 q 170 656 144 628 q 117 601 117 562 q 117 522 144 494 q 170 467 208 467 q 245 467 271 494 q 297 522 297 562 z m 424 139 q 424 179 444 213 q 463 247 496 267 q 530 287 569 287 q 608 287 642 267 q 675 247 694 213 q 714 179 714 139 q 714 99 694 65 q 675 31 642 11 q 609 -9 569 -9 q 530 -9 496 11 q 463 31 444 65 q 424 99 424 139 z m 659 139 q 659 178 632 206 q 606 233 569 233 q 532 233 506 206 q 479 178 479 139 q 479 99 505 72 q 531 44 569 44 q 607 44 633 72 q 659 100 659 139 z"},"m":{"x_min":0,"x_max":657,"ha":657,"o":"m 609 347 l 609 10 q 609 0 599 0 l 524 0 q 514 0 514 10 l 514 340 q 514 384 496 408 q 478 433 448 433 q 416 433 397 408 q 378 384 378 341 l 378 10 q 378 0 368 0 l 293 0 q 283 0 283 10 l 283 340 q 283 384 265 408 q 247 433 217 433 q 185 433 166 408 q 147 384 147 341 l 147 10 q 147 0 137 0 l 62 0 q 52 0 52 10 l 52 499 q 52 509 62 509 l 137 509 q 147 509 147 499 l 147 474 q 147 472 148 471 q 150 470 152 472 q 172 494 198 505 q 224 516 250 516 q 326 516 359 449 q 360 447 362 448 q 364 448 365 452 q 385 486 416 501 q 447 516 480 516 q 542 516 576 472 q 609 427 609 347 z"},"#":{"x_min":0,"x_max":599,"ha":599,"o":"m 541 420 l 477 420 q 472 420 472 416 l 453 278 q 453 274 456 274 l 508 274 q 518 274 518 264 l 518 201 q 518 191 508 191 l 443 191 q 438 191 438 187 l 415 29 q 414 20 405 20 l 329 21 q 325 21 322 24 q 319 27 320 32 l 342 187 q 342 191 339 191 l 215 191 q 210 191 210 187 l 187 29 q 186 20 177 20 l 101 21 q 97 21 94 24 q 91 27 92 32 l 114 187 q 114 191 111 191 l 58 191 q 48 191 48 201 l 48 264 q 48 274 58 274 l 124 274 q 129 274 129 278 l 148 416 q 148 420 145 420 l 91 420 q 81 420 81 430 l 81 494 q 81 504 91 504 l 158 504 q 163 504 163 508 l 186 666 q 187 675 196 675 l 272 674 q 276 674 279 671 q 282 668 281 663 l 259 508 q 259 504 262 504 l 386 504 q 391 504 391 508 l 414 666 q 415 675 424 675 l 500 674 q 504 674 507 671 q 510 668 509 663 l 487 508 q 487 504 490 504 l 541 504 q 551 504 551 494 l 551 430 q 551 420 541 420 z m 357 278 l 376 416 q 376 420 373 420 l 249 420 q 244 420 244 416 l 225 278 q 225 274 228 274 l 352 274 q 357 274 357 278 z"},",":{"x_min":0,"x_max":189,"ha":189,"o":"m 35 -75 l 64 147 q 65 156 74 156 l 140 156 q 151 156 149 145 l 101 -77 q 100 -86 90 -86 l 45 -86 q 40 -86 37 -82 q 34 -79 35 -75 z"},"n":{"x_min":0,"x_max":432,"ha":432,"o":"m 385 353 l 385 10 q 385 0 375 0 l 299 0 q 289 0 289 10 l 289 345 q 289 387 271 410 q 253 433 221 433 q 188 433 170 410 q 151 388 149 347 q 149 341 148 341 l 148 10 q 148 0 138 0 l 62 0 q 52 0 52 10 l 52 499 q 52 509 62 509 l 138 509 q 148 509 148 499 l 148 472 q 148 470 150 470 q 152 469 154 472 q 190 516 255 516 q 318 516 352 474 q 385 431 385 353 z"},"h":{"x_min":0,"x_max":432,"ha":432,"o":"m 385 353 l 385 10 q 385 0 375 0 l 299 0 q 289 0 289 10 l 289 345 q 289 387 271 410 q 253 433 221 433 q 188 433 170 410 q 151 388 149 347 q 149 341 148 341 l 148 10 q 148 0 138 0 l 62 0 q 52 0 52 10 l 52 690 q 52 700 62 700 l 138 700 q 148 700 148 690 l 148 472 q 148 470 150 470 q 152 469 154 472 q 190 516 255 516 q 318 516 352 474 q 385 431 385 353 z"},"z":{"x_min":0,"x_max":365,"ha":365,"o":"m 28 10 l 28 80 q 28 87 31 93 l 218 416 q 219 418 218 420 q 217 421 215 421 l 42 421 q 32 421 32 431 l 32 499 q 32 509 42 509 l 325 509 q 335 509 335 499 l 335 428 q 335 421 332 415 l 140 92 q 139 90 140 88 q 141 87 143 87 l 328 87 q 338 87 338 77 l 338 10 q 338 0 328 0 l 38 0 q 28 0 28 10 z"},"B":{"x_min":0,"x_max":456,"ha":456,"o":"m 239 0 l 72 0 q 62 0 62 10 l 62 690 q 62 700 72 700 l 225 700 q 316 700 368 652 q 419 605 419 514 q 419 406 342 365 q 337 362 341 360 q 381 336 404 293 q 426 250 426 191 q 426 100 374 50 q 323 0 239 0 z m 158 613 l 158 401 q 158 397 162 397 l 226 397 q 273 397 299 426 q 325 454 325 505 q 325 558 299 588 q 273 617 226 617 l 162 617 q 158 617 158 613 z m 330 203 q 330 261 304 294 q 278 326 232 326 l 162 326 q 158 326 158 322 l 158 88 q 158 84 162 84 l 231 84 q 277 84 304 115 q 330 146 330 203 z"},"K":{"x_min":0,"x_max":466,"ha":466,"o":"m 62 10 l 62 690 q 62 700 72 700 l 148 700 q 158 700 158 690 l 158 390 q 158 387 160 386 q 162 386 163 389 l 333 693 q 338 700 345 700 l 427 700 q 433 700 435 696 q 437 693 434 688 l 280 410 q 279 407 280 404 l 447 12 l 448 8 q 448 0 439 0 l 356 0 q 348 0 345 8 l 215 320 q 214 325 210 321 l 159 240 q 158 239 158 235 l 158 10 q 158 0 148 0 l 72 0 q 62 0 62 10 z"},"R":{"x_min":0,"x_max":453,"ha":453,"o":"m 328 8 l 236 306 q 235 309 232 309 l 162 309 q 158 309 158 305 l 158 10 q 158 0 148 0 l 72 0 q 62 0 62 10 l 62 690 q 62 700 72 700 l 251 700 q 302 700 341 675 q 380 650 402 604 q 423 559 423 501 q 423 438 397 392 q 371 345 326 324 q 323 321 324 318 l 426 11 l 427 7 q 427 0 418 0 l 340 0 q 331 0 328 8 z m 158 613 l 158 389 q 158 385 162 385 l 236 385 q 277 385 302 416 q 327 448 327 500 q 327 554 302 586 q 277 617 236 617 l 162 617 q 158 617 158 613 z"},"T":{"x_min":0,"x_max":439,"ha":439,"o":"m 409 690 l 409 627 q 409 617 399 617 l 268 617 q 264 617 264 613 l 264 10 q 264 0 254 0 l 178 0 q 168 0 168 10 l 168 613 q 168 617 164 617 l 40 617 q 30 617 30 627 l 30 690 q 30 700 40 700 l 399 700 q 409 700 409 690 z"},"P":{"x_min":0,"x_max":451,"ha":451,"o":"m 422 500 q 422 412 376 358 q 330 304 255 304 l 161 304 q 157 304 157 300 l 157 10 q 157 0 147 0 l 71 0 q 61 0 61 10 l 61 691 q 61 701 71 701 l 250 701 q 327 701 374 646 q 422 590 422 500 z m 326 498 q 326 553 301 586 q 276 618 235 618 l 161 618 q 157 618 157 614 l 157 385 q 157 381 161 381 l 235 381 q 276 381 301 412 q 326 444 326 498 z"},"|":{"x_min":0,"x_max":159,"ha":159,"o":"m 31 -70 l 31 750 q 31 760 41 760 l 117 760 q 127 760 127 750 l 127 -70 q 127 -80 117 -80 l 41 -80 q 31 -80 31 -70 z"},"t":{"x_min":0,"x_max":275,"ha":275,"o":"m 241 439 l 171 439 q 167 439 167 435 l 167 154 q 167 114 181 98 q 195 83 225 84 l 234 84 q 244 84 244 74 l 244 10 q 244 0 234 0 l 203 0 q 139 0 106 25 q 74 50 74 120 l 74 435 q 74 439 70 439 l 31 439 q 21 439 21 449 l 21 499 q 21 509 31 509 l 70 509 q 74 509 74 513 l 74 626 q 74 636 84 636 l 157 636 q 167 636 167 626 l 167 513 q 167 509 171 509 l 241 509 q 251 509 251 499 l 251 449 q 251 439 241 439 z"},"M":{"x_min":0,"x_max":530,"ha":530,"o":"m 385 700 l 461 700 q 471 700 471 690 l 471 10 q 471 0 461 0 l 385 0 q 375 0 375 10 l 375 506 q 375 509 374 509 q 372 509 370 507 l 274 328 q 271 321 265 321 q 259 321 256 328 l 161 506 q 159 508 158 508 q 156 508 156 505 l 156 10 q 156 0 146 0 l 70 0 q 60 0 60 10 l 60 690 q 60 700 70 700 l 146 700 q 153 700 158 693 l 263 505 q 264 504 266 504 q 268 504 269 505 l 373 693 q 377 700 385 700 z"},"g":{"x_min":0,"x_max":423,"ha":423,"o":"m 292 509 l 368 509 q 378 509 378 499 l 378 15 q 378 -90 330 -148 q 282 -205 165 -205 l 138 -204 q 128 -203 128 -193 l 128 -129 q 128 -119 139 -119 q 221 -122 252 -86 q 282 -51 282 24 l 282 45 q 282 47 280 48 q 279 48 277 46 q 243 0 180 0 q 114 0 78 42 q 43 85 43 158 l 43 358 q 43 432 79 474 q 115 517 180 517 q 245 517 277 471 q 279 469 280 470 q 282 471 282 473 l 282 499 q 282 509 292 509 z m 282 164 l 282 352 q 282 388 262 411 q 243 434 211 434 q 179 434 159 411 q 139 388 139 352 l 139 164 q 139 128 159 106 q 179 83 211 83 q 243 83 262 106 q 282 128 282 164 z"},"j":{"x_min":0,"x_max":206,"ha":206,"o":"m 36 653 q 36 681 54 699 q 72 717 100 717 q 129 717 147 699 q 165 681 165 653 q 165 625 146 607 q 128 589 100 589 q 72 589 54 607 q 36 625 36 653 z m -39 -197 l -39 -134 q -39 -124 -29 -124 q 52 -123 52 -28 l 52 499 q 52 509 62 509 l 138 509 q 148 509 148 499 l 148 -28 q 148 -90 136 -128 q 123 -165 85 -186 q 47 -207 -26 -207 q -39 -207 -39 -197 z"},"i":{"x_min":0,"x_max":212,"ha":212,"o":"m 41 653 q 41 681 59 699 q 77 717 105 717 q 134 717 152 700 q 169 682 169 653 q 169 625 151 607 q 133 589 105 589 q 77 589 59 607 q 41 625 41 653 z m 58 10 l 58 499 q 58 509 68 509 l 144 509 q 154 509 154 499 l 154 10 q 154 0 144 0 l 68 0 q 58 0 58 10 z"},"y":{"x_min":0,"x_max":387,"ha":387,"o":"m 36 -189 l 36 -130 q 36 -120 46 -120 q 78 -119 96 -110 q 115 -101 126 -76 q 138 -51 146 -3 l 145 2 l 17 498 l 16 501 q 16 509 26 509 l 108 509 q 118 509 119 500 l 192 139 q 193 136 194 136 q 195 136 196 139 l 268 500 q 270 509 279 509 l 362 508 q 367 508 370 505 q 372 502 370 497 l 233 -35 q 214 -104 195 -138 q 176 -171 142 -185 q 109 -199 47 -199 l 42 -199 q 40 -199 38 -196 q 36 -193 36 -189 z"},"@":{"x_min":0,"x_max":759,"ha":759,"o":"m 716 344 q 716 319 713 292 q 700 196 651 142 q 602 89 529 89 q 466 89 433 130 q 430 133 427 130 q 413 108 391 98 q 369 88 346 88 q 298 88 268 115 q 238 142 238 190 q 238 207 243 240 l 247 276 q 247 273 256 343 q 265 396 294 426 q 322 455 371 455 q 385 455 401 449 q 417 443 430 431 q 431 429 433 430 q 435 430 435 432 l 436 440 q 437 449 446 449 l 493 449 q 498 449 501 446 q 504 442 503 438 l 478 243 q 477 237 477 225 q 477 190 494 172 q 511 153 540 153 q 580 153 607 191 q 634 229 642 293 q 645 317 645 339 q 645 408 616 460 q 587 512 534 540 q 482 568 413 568 q 339 568 274 530 q 210 492 168 424 q 125 355 114 269 q 111 245 111 222 q 111 147 141 92 q 171 38 222 10 q 272 -18 332 -18 q 377 -18 414 -6 q 451 6 476 25 l 480 28 q 481 29 483 29 q 489 29 492 24 l 515 -12 q 517 -16 517 -18 q 517 -23 512 -26 q 477 -51 428 -66 q 378 -82 321 -82 q 241 -82 178 -46 q 115 -10 79 58 q 43 125 43 215 q 43 233 47 273 q 60 376 114 458 q 167 539 248 584 q 329 630 421 630 q 508 630 575 594 q 642 559 679 494 q 716 429 716 344 z m 407 203 l 409 215 l 409 219 q 409 228 410 232 l 425 347 l 425 351 q 423 372 412 384 q 400 397 381 397 q 359 397 342 381 q 326 365 323 339 l 320 318 q 315 280 314 271 l 306 203 q 304 176 316 161 q 327 146 349 146 q 371 146 386 162 q 402 177 407 203 z"},".":{"x_min":0,"x_max":202,"ha":202,"o":""},"p":{"x_min":0,"x_max":435,"ha":435,"o":"m 392 359 l 392 151 q 392 77 354 34 q 315 -8 250 -8 q 226 -8 202 1 q 177 10 158 29 q 153 32 153 27 l 153 -181 q 153 -191 143 -191 l 67 -191 q 57 -191 57 -181 l 57 499 q 57 509 67 509 l 143 509 q 153 509 153 499 l 153 483 q 153 481 155 480 q 157 480 159 482 q 178 500 202 508 q 226 517 250 517 q 315 517 354 474 q 392 430 392 359 z m 224 434 q 193 434 173 411 q 153 388 153 352 l 153 157 q 153 121 173 98 q 193 75 224 75 q 256 75 276 98 q 297 121 297 157 l 297 352 q 297 388 276 411 q 256 434 224 434 z"},"X":{"x_min":0,"x_max":449,"ha":449,"o":"m 34 12 l 173 347 q 175 350 173 353 l 34 688 l 33 692 q 33 700 42 700 l 120 700 q 128 700 131 692 l 222 451 q 223 448 225 448 q 227 448 228 451 l 318 692 q 321 700 329 700 l 407 700 q 412 700 414 696 q 417 693 415 688 l 276 352 q 275 349 276 346 l 415 12 l 416 8 q 416 0 407 0 l 330 0 q 322 0 319 8 l 228 248 q 227 251 225 251 q 223 251 222 248 l 131 8 q 128 0 120 0 l 42 0 q 37 0 34 4 q 32 7 34 12 z"},"*":{"x_min":0,"x_max":361,"ha":361,"o":"m 152 405 l 152 512 q 152 514 150 515 q 149 516 147 515 l 57 460 l 52 458 q 47 458 43 464 l 24 497 q 22 501 22 503 q 22 509 27 511 l 121 567 q 123 568 123 570 q 123 572 121 573 l 27 629 q 19 634 24 643 l 43 677 q 49 687 57 681 l 147 625 q 149 624 150 625 q 152 626 152 628 l 152 736 q 152 746 162 746 l 200 746 q 210 746 210 736 l 209 628 q 209 625 210 624 q 212 623 214 625 l 304 681 l 309 683 q 314 683 318 677 l 337 643 q 339 639 339 637 q 339 632 334 629 l 240 573 q 239 572 239 570 q 239 568 240 567 l 334 511 q 342 506 337 497 l 318 463 q 312 453 304 459 l 214 515 q 212 517 210 516 q 209 515 209 512 l 210 405 q 210 395 200 395 l 162 395 q 152 395 152 405 z"},"Y":{"x_min":0,"x_max":442,"ha":442,"o":"m 173 11 l 173 297 l 172 302 l 33 689 l 32 693 q 32 700 41 700 l 121 700 q 130 700 133 692 l 218 416 q 219 414 221 414 q 223 414 224 416 l 309 692 q 312 700 321 700 l 401 700 q 412 700 409 689 l 270 302 l 269 297 l 269 11 q 269 1 259 1 l 183 1 q 173 1 173 11 z"},"c":{"x_min":0,"x_max":413,"ha":413,"o":"m 43 151 l 43 358 q 43 429 88 473 q 134 517 211 517 q 262 517 300 498 q 339 478 360 444 q 380 411 380 369 l 380 356 q 380 346 370 346 l 294 343 q 284 343 284 353 l 284 363 q 284 392 263 413 q 242 434 211 434 q 179 434 159 411 q 139 388 139 352 l 139 157 q 139 121 159 98 q 179 75 211 75 q 242 75 263 96 q 284 117 284 146 l 284 156 q 284 166 294 166 l 370 165 q 380 165 380 155 l 380 140 q 380 75 334 34 q 288 -8 211 -8 q 134 -8 88 35 q 43 78 43 151 z"},"!":{"x_min":0,"x_max":261,"ha":261,"o":"m 92 242 l 83 690 q 83 700 93 700 l 169 700 q 179 700 179 690 l 169 242 q 169 232 159 232 l 102 232 q 92 232 92 242 z m 67 67 q 67 96 85 114 q 103 131 131 131 q 159 131 177 113 q 195 95 195 67 q 195 39 177 21 q 159 3 131 3 q 103 3 85 21 q 67 39 67 67 z"},"/":{"x_min":0,"x_max":363,"ha":363,"o":"m 22 11 l 217 692 q 220 700 228 700 l 303 700 q 308 700 310 697 q 313 694 312 689 l 117 8 q 114 0 106 0 l 31 0 q 26 0 24 3 q 21 6 22 11 z"},"[":{"x_min":0,"x_max":318,"ha":318,"o":"m 27 -120 l 27 774 q 27 784 37 784 l 211 784 q 221 784 221 774 l 221 710 q 221 700 211 700 l 127 700 q 123 700 123 696 l 123 -43 q 123 -47 127 -47 l 212 -47 q 222 -47 222 -57 l 222 -120 q 222 -130 212 -130 l 37 -130 q 27 -130 27 -120 z"},"6":{"x_min":0,"x_max":420,"ha":420,"o":"m 389 215 q 389 188 385 146 q 379 72 335 32 q 291 -8 217 -8 q 149 -8 106 29 q 62 66 52 138 q 46 168 46 208 l 45 534 q 45 613 92 660 q 139 708 216 708 q 287 708 332 660 q 378 613 378 534 l 378 512 q 378 502 368 502 l 292 502 q 282 502 282 512 l 282 530 q 282 571 263 596 q 244 622 216 622 q 183 622 162 596 q 142 571 142 530 l 142 420 q 142 415 147 418 q 176 447 220 447 q 288 447 331 405 q 374 363 382 293 q 389 255 389 215 z m 292 221 q 292 252 285 299 q 271 364 216 364 q 161 364 147 296 q 142 264 142 221 q 142 182 146 149 q 160 75 216 75 q 245 75 264 95 q 282 115 288 154 q 292 186 292 221 z"},"r":{"x_min":0,"x_max":304,"ha":304,"o":"m 288 503 q 295 499 293 490 l 278 414 q 277 405 266 408 q 253 413 238 413 q 232 413 220 411 q 189 408 168 377 q 148 346 148 302 l 148 10 q 148 0 138 0 l 62 0 q 52 0 52 10 l 52 499 q 52 509 62 509 l 138 509 q 148 509 148 499 l 148 441 q 148 438 150 438 q 151 437 152 440 q 181 514 245 514 q 270 514 288 503 z"},"2":{"x_min":0,"x_max":415,"ha":415,"o":"m 152 83 l 381 83 q 391 83 391 73 l 391 10 q 391 0 381 0 l 45 0 q 35 0 35 10 l 35 76 q 35 84 39 89 l 70 135 q 165 272 217 357 q 277 459 277 527 q 277 572 256 598 q 236 625 203 625 q 170 625 150 599 q 130 573 131 530 l 131 490 q 131 480 121 480 l 43 480 q 33 480 33 490 l 33 533 q 36 612 84 660 q 132 708 207 708 q 282 708 328 658 q 374 608 374 526 q 374 477 356 426 q 339 376 303 318 q 278 278 198 159 l 149 88 q 148 86 149 84 q 150 83 152 83 z"},"{":{"x_min":0,"x_max":298,"ha":298,"o":"m 90 -13 l 90 200 q 90 242 76 264 q 63 285 36 290 q 27 292 27 301 l 27 358 q 27 368 36 369 q 90 378 90 458 l 90 666 q 90 784 198 784 l 262 784 q 272 784 272 774 l 272 710 q 272 700 262 700 l 238 700 q 213 700 200 682 q 186 664 186 630 l 186 448 q 186 402 174 374 q 161 346 135 332 q 130 330 135 327 q 186 300 186 211 l 186 24 q 186 -10 200 -28 q 213 -47 238 -47 l 262 -47 q 272 -47 272 -57 l 272 -120 q 272 -130 262 -130 l 198 -130 q 90 -130 90 -13 z"},"9":{"x_min":0,"x_max":414,"ha":414,"o":"m 369 166 q 369 87 322 40 q 275 -8 198 -8 q 127 -8 82 40 q 36 87 36 166 l 36 188 q 36 198 46 198 l 122 198 q 132 198 132 188 l 132 170 q 132 130 151 104 q 170 78 198 78 q 231 78 252 104 q 272 129 272 170 l 272 280 q 272 285 267 282 q 238 253 194 253 q 127 253 84 296 q 40 338 32 407 q 26 440 26 485 q 26 523 29 554 q 35 628 79 668 q 123 708 197 708 q 266 708 309 671 q 352 634 362 562 q 368 532 368 492 z m 272 479 q 272 518 268 551 q 254 625 198 625 q 169 625 150 605 q 132 585 126 546 q 123 510 123 479 q 123 442 129 401 q 143 336 198 336 q 253 336 267 404 q 272 437 272 479 z"}," ":{"x_min":0,"x_max":200,"ha":200,"o":""},"I":{"x_min":0,"x_max":220,"ha":220,"o":"m 62 10 l 62 690 q 62 700 72 700 l 148 700 q 158 700 158 690 l 158 10 q 158 0 148 0 l 72 0 q 62 0 62 10 z"},"H":{"x_min":0,"x_max":475,"ha":475,"o":"m 327 700 l 403 700 q 413 700 413 690 l 413 10 q 413 0 403 0 l 327 0 q 317 0 317 10 l 317 305 q 317 309 313 309 l 162 309 q 158 309 158 305 l 158 10 q 158 0 148 0 l 72 0 q 62 0 62 10 l 62 690 q 62 700 72 700 l 148 700 q 158 700 158 690 l 158 396 q 158 392 162 392 l 313 392 q 317 392 317 396 l 317 690 q 317 700 327 700 z"},"4":{"x_min":0,"x_max":440,"ha":440,"o":"m 421 263 l 421 196 q 421 186 411 186 l 379 186 q 375 186 375 182 l 375 10 q 375 0 365 0 l 289 0 q 279 0 279 10 l 279 182 q 279 186 275 186 l 29 186 q 19 186 19 196 l 19 252 q 19 256 21 264 l 165 692 q 168 700 177 700 l 259 700 q 270 700 267 689 l 131 278 q 130 276 132 274 q 133 273 135 273 l 275 273 q 279 273 279 277 l 279 414 q 279 424 289 424 l 365 424 q 375 424 375 414 l 375 277 q 375 273 379 273 l 411 273 q 421 273 421 263 z"},"~":{"x_min":0,"x_max":471,"ha":471,"o":"m 232 253 q 227 256 212 264 q 198 272 186 276 q 173 280 161 280 q 119 280 92 241 q 87 231 78 237 l 37 262 q 29 267 32 276 q 48 315 80 340 q 112 364 153 364 q 176 364 195 357 q 214 350 233 338 q 261 321 278 313 q 295 305 317 305 q 336 305 350 315 q 363 325 376 344 q 382 352 390 347 l 434 320 q 442 315 438 309 l 436 305 q 388 221 322 221 q 296 221 278 229 q 259 237 232 253 z"},"D":{"x_min":0,"x_max":469,"ha":469,"o":"m 62 10 l 62 690 q 62 700 72 700 l 236 700 q 319 700 368 649 q 417 598 417 511 l 417 189 q 417 102 368 51 q 319 0 236 0 l 72 0 q 62 0 62 10 z m 162 83 l 235 84 q 273 84 296 114 q 319 143 320 194 l 320 506 q 320 557 297 587 q 274 617 235 617 l 162 617 q 158 617 158 613 l 158 87 q 158 83 162 83 z"},"^":{"x_min":0,"x_max":406,"ha":406,"o":"m 33 315 l 158 692 q 161 700 170 700 l 234 700 q 243 700 246 692 l 373 315 l 374 311 q 374 304 365 304 l 303 304 q 294 304 291 312 l 206 590 q 205 592 203 592 q 201 592 200 590 l 114 312 q 111 304 102 304 l 41 304 q 30 304 33 315 z"},"0":{"x_min":0,"x_max":447,"ha":447,"o":"m 44 177 l 44 523 q 44 608 93 659 q 142 710 223 710 q 304 710 354 659 q 403 608 403 523 l 403 177 q 403 92 354 41 q 304 -10 223 -10 q 142 -10 93 41 q 44 92 44 177 z m 307 171 l 307 529 q 307 573 284 600 q 261 627 223 627 q 186 627 163 600 q 140 573 140 529 l 140 171 q 140 127 163 100 q 186 73 223 73 q 261 73 284 100 q 307 127 307 171 z"},"F":{"x_min":0,"x_max":410,"ha":410,"o":"m 386 617 l 162 617 q 158 617 158 613 l 158 396 q 158 392 162 392 l 299 392 q 309 392 309 382 l 309 319 q 309 309 299 309 l 162 309 q 158 309 158 305 l 158 10 q 158 0 148 0 l 72 0 q 62 0 62 10 l 62 690 q 62 700 72 700 l 386 700 q 396 700 396 690 l 396 627 q 396 617 386 617 z"},"`":{"x_min":0,"x_max":194,"ha":194,"o":""},"k":{"x_min":0,"x_max":421,"ha":421,"o":"m 52 10 l 52 690 q 52 700 62 700 l 138 700 q 148 700 148 690 l 148 311 q 148 308 150 307 q 152 306 153 309 l 282 503 q 287 509 294 509 l 372 509 q 378 509 380 506 q 382 502 379 497 l 276 345 q 273 342 275 339 l 395 11 l 396 7 q 396 0 387 0 l 308 0 q 299 0 296 8 l 216 259 q 215 265 210 260 l 150 173 q 148 171 148 168 l 148 10 q 148 0 138 0 l 62 0 q 52 0 52 10 z"},"u":{"x_min":0,"x_max":432,"ha":432,"o":"m 293 509 l 369 509 q 379 509 379 499 l 379 10 q 379 0 369 0 l 293 0 q 283 0 283 10 l 283 39 q 283 42 282 42 q 280 42 278 40 q 248 -7 182 -7 q 122 -7 85 30 q 48 66 48 141 l 48 499 q 48 509 58 509 l 134 509 q 144 509 144 499 l 144 162 q 144 76 212 76 q 246 76 264 100 q 283 125 283 168 l 283 499 q 283 509 293 509 z"},"]":{"x_min":0,"x_max":318,"ha":318,"o":"m 281 -130 l 106 -130 q 96 -130 96 -120 l 96 -57 q 96 -47 106 -47 l 191 -47 q 195 -47 195 -43 l 195 696 q 195 700 191 700 l 107 700 q 97 700 97 710 l 97 774 q 97 784 107 784 l 281 784 q 291 784 291 774 l 291 -120 q 291 -130 281 -130 z"},"U":{"x_min":0,"x_max":477,"ha":477,"o":"m 57 190 l 57 690 q 57 700 67 700 l 143 700 q 153 700 153 690 l 153 180 q 153 133 176 104 q 200 75 238 75 q 277 75 300 104 q 324 133 324 180 l 324 690 q 324 700 334 700 l 410 700 q 420 700 420 690 l 420 190 q 420 101 370 46 q 320 -8 238 -8 q 156 -8 106 46 q 57 101 57 190 z"},"o":{"x_min":0,"x_max":424,"ha":424,"o":"m 43 151 l 43 358 q 43 429 89 473 q 135 517 212 517 q 290 517 336 473 q 382 429 382 358 l 382 151 q 382 79 336 36 q 290 -8 212 -8 q 134 -8 88 36 q 43 79 43 151 z m 286 158 l 286 352 q 286 388 265 411 q 244 434 212 434 q 180 434 160 411 q 139 388 139 352 l 139 158 q 139 121 160 98 q 180 76 212 76 q 244 76 265 98 q 286 121 286 158 z"},"N":{"x_min":0,"x_max":501,"ha":501,"o":"m 354 700 l 429 700 q 439 700 439 690 l 439 10 q 439 0 429 0 l 343 0 q 335 0 332 8 l 162 465 q 161 467 159 466 q 157 466 157 464 l 158 10 q 158 0 148 0 l 72 0 q 62 0 62 10 l 62 690 q 62 700 72 700 l 157 700 q 165 700 168 692 l 339 235 q 340 232 342 232 q 344 233 344 236 l 344 690 q 344 700 354 700 z"},"+":{"x_min":0,"x_max":440,"ha":440,"o":"m 411 343 l 411 289 q 411 279 401 279 l 261 279 q 257 279 257 275 l 257 135 q 257 125 247 125 l 193 125 q 183 125 183 135 l 183 275 q 183 279 179 279 l 39 279 q 29 279 29 289 l 29 343 q 29 353 39 353 l 179 353 q 183 353 183 357 l 183 497 q 183 507 193 507 l 247 507 q 257 507 257 497 l 257 357 q 257 353 261 353 l 401 353 q 411 353 411 343 z"},"G":{"x_min":0,"x_max":457,"ha":457,"o":"m 48 167 l 48 533 q 48 612 98 660 q 147 708 228 708 q 309 708 359 660 q 409 612 409 532 l 409 490 q 409 480 399 480 l 323 480 q 313 480 313 490 l 313 534 q 313 575 290 600 q 266 625 228 625 q 190 625 166 600 q 143 575 143 534 l 143 166 q 143 125 166 100 q 190 75 228 75 q 266 75 290 100 q 313 125 313 166 l 313 276 q 313 280 309 280 l 233 280 q 223 280 223 290 l 223 352 q 223 362 233 362 l 399 362 q 409 362 409 352 l 409 167 q 409 88 359 40 q 309 -8 228 -8 q 147 -8 98 40 q 48 88 48 167 z"},"q":{"x_min":0,"x_max":435,"ha":435,"o":"m 292 509 l 368 509 q 378 509 378 499 l 378 -181 q 378 -191 368 -191 l 292 -191 q 282 -191 282 -181 l 282 26 q 282 28 280 29 q 279 30 277 28 q 258 10 234 1 q 210 -8 186 -8 q 120 -8 82 34 q 43 77 43 151 l 43 359 q 43 430 82 474 q 120 517 186 517 q 210 517 234 508 q 258 499 277 481 q 279 479 280 480 q 282 481 282 483 l 282 499 q 282 509 292 509 z m 282 142 l 282 367 q 278 397 258 416 q 239 434 211 434 q 179 434 158 411 q 138 388 138 352 l 138 157 q 138 121 158 98 q 179 75 211 75 q 239 75 258 94 q 278 112 282 142 z"},"d":{"x_min":0,"x_max":431,"ha":431,"o":"m 292 700 l 368 700 q 378 700 378 690 l 378 10 q 378 0 368 0 l 292 0 q 282 0 282 10 l 282 26 q 282 28 280 29 q 279 30 277 28 q 258 10 234 1 q 210 -8 186 -8 q 120 -8 82 36 q 43 79 43 150 l 43 358 q 43 432 82 474 q 120 517 186 517 q 210 517 234 508 q 258 499 277 481 q 279 479 280 480 q 282 481 282 483 l 282 690 q 282 700 292 700 z m 282 142 l 282 367 q 278 397 258 416 q 239 434 211 434 q 179 434 158 411 q 138 388 138 352 l 138 157 q 138 121 158 98 q 179 75 211 75 q 239 75 258 94 q 278 112 282 142 z"},"1":{"x_min":0,"x_max":266,"ha":266,"o":"m 125 700 l 205 700 q 215 700 215 690 l 215 10 q 215 0 205 0 l 129 0 q 119 0 119 10 l 119 595 q 119 597 118 598 q 116 600 115 599 l 26 576 l 22 575 q 16 575 14 584 l 10 640 q 10 649 17 652 l 113 697 q 119 700 125 700 z"},"5":{"x_min":0,"x_max":420,"ha":420,"o":"m 388 215 q 388 177 383 139 q 376 68 332 30 q 288 -8 216 -8 q 146 -8 103 29 q 60 66 49 139 l 46 169 q 46 179 56 179 l 132 179 q 142 179 142 169 l 145 147 q 158 75 216 75 q 244 75 262 93 q 280 111 286 145 q 292 175 292 215 q 292 257 284 289 q 277 319 260 335 q 242 351 216 351 q 157 351 143 294 q 140 285 132 285 l 55 285 q 45 285 45 295 l 45 690 q 45 700 55 700 l 364 700 q 374 700 374 690 l 374 627 q 374 617 364 617 l 145 617 q 141 617 141 613 l 141 393 q 141 391 142 390 q 144 390 146 392 q 162 412 187 424 q 212 435 243 435 q 300 435 336 400 q 371 364 380 299 q 388 261 388 215 z"}}}
